<svg width="23" height="16" viewBox="0 0 23 16" fill="none" xmlns="http://www.w3.org/2000/svg">
<path d="M1.15576 7C0.603477 7 0.155762 7.44772 0.155762 8C0.155762 8.55228 0.603477 9 1.15576 9V7ZM21.9919 8.70711C22.3824 8.31658 22.3824 7.68342 21.9919 7.29289L15.6279 0.928932C15.2374 0.538408 14.6043 0.538408 14.2137 0.928932C13.8232 1.31946 13.8232 1.95262 14.2137 2.34315L19.8706 8L14.2137 13.6569C13.8232 14.0474 13.8232 14.6805 14.2137 15.0711C14.6043 15.4616 15.2374 15.4616 15.6279 15.0711L21.9919 8.70711ZM1.15576 9H21.2848V7H1.15576V9Z" fill="#1E1B1B"/>
</svg>
